<?xml version="1.0" encoding="utf-8"?>
<!-- Generator: Adobe Illustrator 18.1.0, SVG Export Plug-In . SVG Version: 6.00 Build 0)  -->
<svg version="1.1" id="Layer_1" xmlns="http://www.w3.org/2000/svg" xmlns:xlink="http://www.w3.org/1999/xlink" x="0px" y="0px"
	 viewBox="0 0 500 500" enable-background="new 0 0 500 500" xml:space="preserve">
<path fill="#010101" d="M395.5,329.7h37.1V77.3H315.5l-12.7-61.5l0,0c-2.2-10.7-12.7-17.5-23.4-15.3c-9.5,1.9-15.9,10.4-15.8,19.7
	l0,0v0.3c0,1.2,0.1,2.3,0.3,3.4l0,0l3.6,17.8h-35.5l4.4-21.6H236c0.1-9.3-6.3-17.7-15.8-19.7C209.5-1.8,199,5,196.8,15.7l0,0
	l-12.7,61.5H67.5v252.3h37.1v18.7h23.2L96.2,499.7h40.4l8.2-39.4h209.6l8.2,39.7h40.6l-31.5-151.5h23.8L395.5,329.7L395.5,329.7z
	 M270.9,57.2l4.2,20.1H225l4.1-20.1C229.1,57.2,270.9,57.2,270.9,57.2z M87.2,97.2h92.7h6.3h34.2h0.6h58.3l0,0h34.7h5.7h93.1v212.7
	h-49.1h-40.4H176.1h-40.4H87.2V97.2z M349.7,437h-200l18.4-88.8h163.1L349.7,437z"/>
</svg>
