<?xml version="1.0" encoding="utf-8"?>
<!-- Generator: Adobe Illustrator 18.1.0, SVG Export Plug-In . SVG Version: 6.00 Build 0)  -->
<svg version="1.1" id="Layer_1" xmlns="http://www.w3.org/2000/svg" xmlns:xlink="http://www.w3.org/1999/xlink" x="0px" y="0px"
	 viewBox="0 0 500 500" enable-background="new 0 0 500 500" xml:space="preserve">
<path fill="#010101" d="M473.1,283c0-5.6-2.6-10.5-6.7-13.7v-46.4l33.6-18.3L252.2,66.7L0,213.7l116.9,60.1l-14.6,110.4l7.7,5.9
	c2.2,1.7,56.8,43.2,140,43.2s137.7-41.5,140-43.2l7.5-5.8l-13.8-116.7l60.2-32.7v34.3c-4,3.3-6.7,8.1-6.7,13.7
	c0,5.3,2.5,10.1,6.2,13.3c-5.8,8.3-11.6,24-11.6,53.5h23.3h23.3c0-29.5-5.8-45.2-11.6-53.5C470.6,293.1,473.1,288.4,473.1,283z
	 M252.6,105.4l157.2,87.4H263.8c-3.3-4-8.1-6.7-13.7-6.7c-9.9,0-17.9,8-17.9,17.9s8,17.9,17.9,17.9c5.6,0,10.5-2.6,13.7-6.7h145.6
	l-161.9,87.8L70,211.9L252.6,105.4z M361.7,368.5c-16,10-56.7,31.1-111.7,31.1c-54.6,0-95.3-21-111.6-31l10.4-78.4l99.3,51
	l103.8-56.3L361.7,368.5z"/>
</svg>
