<?xml version="1.0" encoding="utf-8"?>
<!-- Generator: Adobe Illustrator 18.1.0, SVG Export Plug-In . SVG Version: 6.00 Build 0)  -->
<svg version="1.1" id="Layer_1" xmlns="http://www.w3.org/2000/svg" xmlns:xlink="http://www.w3.org/1999/xlink" x="0px" y="0px"
	 viewBox="0 0 500 500" enable-background="new 0 0 500 500" xml:space="preserve">
<g>
	<path fill="#010101" d="M482.9,47.5H17.1C7.7,47.5,0,55.2,0,64.6V363c0,9.4,7.7,17.1,17.1,17.1h465.8c9.4,0,17.1-7.7,17.1-17.1
		V64.6C500,55.2,492.3,47.5,482.9,47.5z M479.4,359.6H20.6V67.9h459v291.6H479.4z"/>
	<path fill="#010101" d="M319.7,449.3c-25.5-15.6-23.2-61.3-23.2-61.3h-50.7h-50.7c0,0,2.3,45.6-23.2,61.3c-0.6,0.3-1.1,0.8-1.1,1.5
		c0,0.9,0.8,1.7,1.7,1.7h73.4h73.4l0,0c0.9,0,1.7-0.8,1.7-1.7C320.7,450.2,320.4,449.6,319.7,449.3z"/>
</g>
</svg>
